<svg width="60" height="73" viewBox="0 0 60 73" fill="none" xmlns="http://www.w3.org/2000/svg">
<path d="M28.568 42.356C29.864 40.628 32.996 39.332 35.876 37.82C40.376 35.444 43.148 33.32 43.148 28.928C43.148 23.348 38.72 20.288 32.852 20.288C25.94 20.288 21.908 23.636 21.224 31.16L26.336 31.808C26.84 26.48 28.892 24.824 32.564 24.824C35.66 24.824 37.496 26.408 37.496 29.108C37.496 31.916 35.12 33.284 30.764 35.588C24.716 38.792 21.8 41.132 21.8 45.38V47H43.616V42.356H28.568Z" fill="black"/>
<path fill-rule="evenodd" clip-rule="evenodd" d="M54 6H12V61H54V6ZM6 0V6H0V67V73H6H54V67H60V0H6Z" fill="black"/>
</svg>
